<?xml version="1.0" encoding="utf-8"?>
<!-- Generator: Adobe Illustrator 18.1.1, SVG Export Plug-In . SVG Version: 6.00 Build 0)  -->
<svg version="1.1" id="Layer_1" xmlns:sketch="http://www.bohemiancoding.com/sketch/ns"
	 xmlns="http://www.w3.org/2000/svg" xmlns:xlink="http://www.w3.org/1999/xlink" x="0px" y="0px" viewBox="-165 282.3 88 31"
	 enable-background="new -165 282.3 88 31" xml:space="preserve">
<title>chest-logo</title>
<desc>Created with Sketch.</desc>
<g id="Page-1" sketch:type="MSPage">
	<g id="chest.pm_x2F_packages_x2F_sticky-grid" transform="translate(-46.000000, -9.000000)" sketch:type="MSArtboardGroup">
		<g id="chest-logo" transform="translate(46.000000, 9.000000)" sketch:type="MSLayerGroup">
			<g enable-background="new    ">
				<path d="M-117.5,301.9c0.1,0,0.3,0.1,0.4,0.2l1.1,1.2c-0.6,0.7-1.3,1.3-2.2,1.7s-1.9,0.6-3.1,0.6c-1.1,0-2-0.2-2.9-0.5
					c-0.9-0.4-1.6-0.9-2.2-1.5s-1.1-1.4-1.4-2.3c-0.3-0.9-0.5-1.9-0.5-3c0-1.1,0.2-2.1,0.5-3s0.8-1.7,1.5-2.3s1.4-1.2,2.3-1.5
					c0.9-0.4,1.8-0.5,2.9-0.5c1.1,0,2,0.2,2.8,0.5s1.5,0.8,2.1,1.4l-0.9,1.2c-0.1,0.1-0.1,0.2-0.2,0.2c-0.1,0.1-0.2,0.1-0.3,0.1
					c-0.1,0-0.2,0-0.3-0.1s-0.2-0.1-0.4-0.2c-0.1-0.1-0.3-0.2-0.4-0.3c-0.2-0.1-0.4-0.2-0.6-0.3c-0.2-0.1-0.5-0.2-0.8-0.2
					c-0.3-0.1-0.6-0.1-1-0.1c-0.6,0-1.2,0.1-1.8,0.3c-0.5,0.2-1,0.6-1.4,1c-0.4,0.4-0.7,1-0.9,1.6s-0.3,1.3-0.3,2.2
					c0,0.8,0.1,1.5,0.3,2.2c0.2,0.6,0.5,1.2,0.9,1.6c0.4,0.4,0.9,0.8,1.4,1c0.5,0.2,1.1,0.3,1.7,0.3c0.4,0,0.7,0,1-0.1
					s0.6-0.1,0.8-0.2s0.5-0.2,0.7-0.3c0.2-0.1,0.4-0.3,0.7-0.5c0.1-0.1,0.1-0.1,0.2-0.1C-117.6,301.9-117.5,301.9-117.5,301.9z"/>
				<path d="M-114.5,305.3v-14.9h2.5v5.7c0.4-0.4,0.8-0.7,1.3-0.9s1-0.3,1.7-0.3c0.6,0,1.1,0.1,1.5,0.3c0.4,0.2,0.8,0.5,1.1,0.8
					s0.5,0.8,0.7,1.2c0.1,0.5,0.2,1,0.2,1.6v6.5h-2.5v-6.5c0-0.6-0.1-1.1-0.4-1.5c-0.3-0.3-0.7-0.5-1.3-0.5c-0.4,0-0.8,0.1-1.2,0.3
					c-0.4,0.2-0.7,0.5-1.1,0.8v7.4H-114.5z"/>
				<path d="M-98.9,294.9c0.6,0,1.2,0.1,1.8,0.3c0.5,0.2,1,0.5,1.4,0.9s0.7,0.9,0.9,1.5c0.2,0.6,0.3,1.2,0.3,2c0,0.4,0,0.6-0.1,0.8
					s-0.2,0.2-0.5,0.2h-6.4c0,0.5,0.1,1,0.3,1.4c0.1,0.4,0.3,0.7,0.6,1s0.5,0.4,0.9,0.6c0.3,0.1,0.7,0.2,1.1,0.2s0.7,0,1-0.1
					c0.3-0.1,0.5-0.2,0.8-0.3s0.4-0.2,0.6-0.3c0.2-0.1,0.3-0.1,0.5-0.1c0.2,0,0.4,0.1,0.5,0.2l0.7,0.9c-0.3,0.3-0.6,0.6-0.9,0.8
					s-0.7,0.4-1.1,0.5s-0.7,0.2-1.1,0.3c-0.4,0.1-0.8,0.1-1.1,0.1c-0.7,0-1.4-0.1-2-0.4c-0.6-0.2-1.1-0.6-1.6-1
					c-0.5-0.5-0.8-1-1.1-1.7c-0.3-0.7-0.4-1.5-0.4-2.4c0-0.7,0.1-1.4,0.3-2c0.2-0.6,0.6-1.2,1-1.6c0.4-0.5,0.9-0.8,1.6-1.1
					C-100.4,295-99.7,294.9-98.9,294.9z M-98.8,296.6c-0.7,0-1.3,0.2-1.7,0.6c-0.4,0.4-0.7,1-0.8,1.7h4.7c0-0.3,0-0.6-0.1-0.9
					s-0.2-0.5-0.4-0.7c-0.2-0.2-0.4-0.4-0.7-0.5C-98.2,296.7-98.5,296.6-98.8,296.6z"/>
				<path d="M-86.3,297c-0.1,0.1-0.1,0.2-0.2,0.2c-0.1,0-0.2,0.1-0.3,0.1c-0.1,0-0.2,0-0.4-0.1c-0.1-0.1-0.3-0.1-0.5-0.2
					s-0.4-0.2-0.6-0.2c-0.2-0.1-0.5-0.1-0.8-0.1c-0.5,0-0.9,0.1-1.1,0.3c-0.3,0.2-0.4,0.5-0.4,0.8c0,0.2,0.1,0.4,0.2,0.6
					c0.1,0.2,0.3,0.3,0.6,0.4s0.5,0.2,0.8,0.3s0.6,0.2,0.9,0.3s0.6,0.2,0.9,0.4c0.3,0.1,0.6,0.3,0.8,0.5s0.4,0.5,0.6,0.8
					c0.1,0.3,0.2,0.6,0.2,1.1c0,0.5-0.1,0.9-0.3,1.4c-0.2,0.4-0.4,0.8-0.8,1.1c-0.3,0.3-0.8,0.5-1.3,0.7c-0.5,0.2-1.1,0.3-1.8,0.3
					c-0.4,0-0.7,0-1-0.1c-0.3-0.1-0.7-0.2-1-0.3c-0.3-0.1-0.6-0.2-0.9-0.4s-0.5-0.3-0.7-0.5l0.6-0.9c0.1-0.1,0.2-0.2,0.3-0.3
					c0.1-0.1,0.2-0.1,0.4-0.1c0.2,0,0.3,0,0.4,0.1s0.3,0.2,0.5,0.3c0.2,0.1,0.4,0.2,0.6,0.3c0.2,0.1,0.6,0.1,0.9,0.1
					c0.3,0,0.5,0,0.8-0.1c0.2-0.1,0.4-0.2,0.5-0.3s0.2-0.2,0.3-0.4c0.1-0.2,0.1-0.3,0.1-0.5c0-0.2-0.1-0.4-0.2-0.6
					c-0.1-0.2-0.3-0.3-0.6-0.4c-0.2-0.1-0.5-0.2-0.8-0.3c-0.3-0.1-0.6-0.2-0.9-0.3c-0.3-0.1-0.6-0.2-0.9-0.4
					c-0.3-0.1-0.6-0.3-0.8-0.5c-0.2-0.2-0.4-0.5-0.6-0.8c-0.1-0.3-0.2-0.7-0.2-1.2c0-0.4,0.1-0.8,0.2-1.2c0.2-0.4,0.4-0.7,0.7-1
					c0.3-0.3,0.7-0.5,1.2-0.7s1-0.3,1.7-0.3c0.7,0,1.3,0.1,1.9,0.3s1.1,0.5,1.5,0.9L-86.3,297z"/>
				<path d="M-80.4,305.4c-0.9,0-1.6-0.3-2.1-0.8c-0.5-0.5-0.7-1.2-0.7-2.1v-5.7h-1c-0.1,0-0.2,0-0.3-0.1s-0.1-0.2-0.1-0.4v-1
					l1.7-0.3l0.5-2.8c0-0.1,0.1-0.2,0.2-0.3s0.2-0.1,0.4-0.1h1.3v3.2h2.7v1.8h-2.7v5.6c0,0.3,0.1,0.6,0.2,0.8
					c0.2,0.2,0.4,0.3,0.6,0.3c0.2,0,0.3,0,0.4-0.1c0.1,0,0.2-0.1,0.3-0.1c0.1,0,0.1-0.1,0.2-0.1c0.1,0,0.1-0.1,0.2-0.1
					c0.1,0,0.1,0,0.2,0.1c0,0,0.1,0.1,0.2,0.2l0.7,1.2c-0.4,0.3-0.8,0.5-1.2,0.7S-79.9,305.4-80.4,305.4z"/>
			</g>
			
				<radialGradient id="logo-3_1_" cx="-323.2812" cy="586.2717" r="1.578" gradientTransform="matrix(26 0 0 -30 8250 17867.5801)" gradientUnits="userSpaceOnUse">
				<stop  offset="0" style="stop-color:#FFDFAE"/>
				<stop  offset="1" style="stop-color:#F64B4B"/>
			</radialGradient>
			<path id="logo-3" sketch:type="MSShapeGroup" fill="url(#logo-3_1_)" d="M-143.1,312.8h4.1v-2.7h-26v2.7h4.3c0-0.6,0.5-1,1-1
				h15.4C-143.6,311.8-143.2,312.2-143.1,312.8L-143.1,312.8z M-162.7,301.9h21.6v7.3h-21.6V301.9z M-162.7,293.7h21.6v7.3h-21.6
				V293.7z M-162.7,285.6h21.6v7.3h-21.6V285.6z M-165,282.8h26v1.9h-26V282.8z M-151.9,290.4c0.7,0,1.2-0.5,1.2-1.2
				s-0.5-1.2-1.2-1.2s-1.2,0.5-1.2,1.2S-152.6,290.4-151.9,290.4z M-151.9,298.6c0.7,0,1.2-0.5,1.2-1.2c0-0.7-0.5-1.2-1.2-1.2
				s-1.2,0.5-1.2,1.2C-153.1,298-152.6,298.6-151.9,298.6z M-151.9,306.7c0.7,0,1.2-0.5,1.2-1.2s-0.5-1.2-1.2-1.2s-1.2,0.5-1.2,1.2
				S-152.6,306.7-151.9,306.7z"/>
		</g>
	</g>
</g>
</svg>
