<?xml version="1.0" encoding="UTF-8" standalone="no"?>
<svg width="88px" height="31px" viewBox="0 0 88 31" version="1.1" xmlns="http://www.w3.org/2000/svg" xmlns:xlink="http://www.w3.org/1999/xlink" xmlns:sketch="http://www.bohemiancoding.com/sketch/ns">
    <!-- Generator: Sketch 3.2.2 (9983) - http://www.bohemiancoding.com/sketch -->
    <title>chest-logo</title>
    <desc>Created with Sketch.</desc>
    <defs>
        <radialGradient cx="37.2607338%" cy="-11.1638965%" fx="37.2607338%" fy="-11.1638965%" r="157.797963%" id="radialGradient-1">
            <stop stop-color="#FFDFAE" offset="0%"></stop>
            <stop stop-color="#F64B4B" offset="100%"></stop>
        </radialGradient>
    </defs>
    <g id="Page-1" stroke="none" stroke-width="1" fill="none" fill-rule="evenodd" sketch:type="MSPage">
        <g id="chest.pm/packages/sticky-grid" sketch:type="MSArtboardGroup" transform="translate(-46.000000, -9.000000)">
            <g id="chest-logo" sketch:type="MSLayerGroup" transform="translate(46.000000, 9.000000)">
                <text id="Chest" sketch:type="MSTextLayer" font-family="Lato" font-size="20" font-weight="bold" fill="#000000">
                    <tspan x="36" y="23">Chest</tspan>
                </text>
                <path d="M21.8501082,30.5 L26,30.5 L26,27.7809668 L0,27.7809668 L0,30.5 L4.33430467,30.5 C4.35812549,29.9453799 4.81705169,29.5030211 5.37668624,29.5030211 L20.8077109,29.5030211 C21.3688405,29.5030211 21.8265098,29.9417333 21.8501082,30.5 L21.8501082,30.5 Z M2.30496454,19.6238671 L23.8794326,19.6238671 L23.8794326,26.8746224 L2.30496454,26.8746224 L2.30496454,19.6238671 Z M2.30496454,11.4667674 L23.8794326,11.4667674 L23.8794326,18.7175227 L2.30496454,18.7175227 L2.30496454,11.4667674 Z M2.30496454,3.30966767 L23.8794326,3.30966767 L23.8794326,10.560423 L2.30496454,10.560423 L2.30496454,3.30966767 Z M0,0.5 L26,0.5 L26,2.40332326 L0,2.40332326 L0,0.5 Z M13.0921986,8.11329305 C13.7541569,8.11329305 14.2907801,7.58577357 14.2907801,6.93504532 C14.2907801,6.28431706 13.7541569,5.75679758 13.0921986,5.75679758 C12.4302403,5.75679758 11.893617,6.28431706 11.893617,6.93504532 C11.893617,7.58577357 12.4302403,8.11329305 13.0921986,8.11329305 Z M13.0921986,16.2703927 C13.7541569,16.2703927 14.2907801,15.7428733 14.2907801,15.092145 C14.2907801,14.4414168 13.7541569,13.9138973 13.0921986,13.9138973 C12.4302403,13.9138973 11.893617,14.4414168 11.893617,15.092145 C11.893617,15.7428733 12.4302403,16.2703927 13.0921986,16.2703927 Z M13.0921986,24.4274924 C13.7541569,24.4274924 14.2907801,23.899973 14.2907801,23.2492447 C14.2907801,22.5985165 13.7541569,22.070997 13.0921986,22.070997 C12.4302403,22.070997 11.893617,22.5985165 11.893617,23.2492447 C11.893617,23.899973 12.4302403,24.4274924 13.0921986,24.4274924 Z" id="logo-3" fill="url(#radialGradient-1)" sketch:type="MSShapeGroup"></path>
            </g>
        </g>
    </g>
</svg>